<svg xmlns="http://www.w3.org/2000/svg" viewBox="0 0 64 64"><title>Outlook_64x64</title><path d="M45.6,18H28.4A1.4,1.4,0,0,0,27,19.4V21l9.69,3L47,21V19.4A1.4,1.4,0,0,0,45.6,18Z" fill="#0364b8"/><path d="M48.65,33.405A11.352,11.352,0,0,0,49,32a.665.665,0,0,0-.333-.576h0l-.013-.007,0,0L37.812,25.24a1.391,1.391,0,0,0-.145-.083h0a1.493,1.493,0,0,0-1.333,0h0a1.391,1.391,0,0,0-.145.083L25.35,31.414l0,0-.012.007h0A.666.666,0,0,0,25,32a11.352,11.352,0,0,0,.35,1.405l11.492,8.406Z" fill="#0a2767"/><polygon points="41 21 34 21 31.979 24 34 27 41 33 47 33 47 27 41 21" fill="#28a8ea"/><rect x="27" y="21" width="7" height="6" fill="#0078d4"/><rect x="41" y="21" width="6" height="6" fill="#50d9ff"/><polygon points="41 33 34 27 27 27 27 33 34 39 44.832 40.768 41 33" fill="#0364b8"/><line x1="27.031" y1="21" x2="47" y2="21" fill="none"/><rect x="34" y="27" width="7" height="6" fill="#0078d4"/><rect x="27" y="33" width="7" height="6" fill="#064a8c"/><rect x="41" y="33" width="6" height="6" fill="#0078d4"/><path d="M37.191,41.218,25.4,32.617l.5-.869S36.637,37.868,36.8,37.96a.527.527,0,0,0,.42-.012l10.933-6.23.5.869Z" fill="#0a2767" opacity="0.5"/><path d="M48.667,32.577h0l-.014.008,0,0L37.812,38.761a1.5,1.5,0,0,1-1.46.091l3.774,5.061,8.254,1.8v0A1.494,1.494,0,0,0,49,44.5V32A.666.666,0,0,1,48.667,32.577Z" fill="#1490df"/><path d="M49,44.5v-.738l-9.983-5.688-1.205.687a1.5,1.5,0,0,1-1.46.091l3.774,5.061,8.254,1.8v0A1.494,1.494,0,0,0,49,44.5Z" opacity="0.05"/><path d="M48.95,44.883,38.007,38.65l-.2.111a1.5,1.5,0,0,1-1.46.091l3.774,5.061,8.254,1.8v0A1.5,1.5,0,0,0,48.95,44.883Z" opacity="0.1"/><path d="M25.35,32.59v-.01h-.01l-.03-.02A.651.651,0,0,1,25,32V44.5A1.5,1.5,0,0,0,26.5,46h21a1.5,1.5,0,0,0,.37-.05.636.636,0,0,0,.18-.06.142.142,0,0,0,.06-.02,1.046,1.046,0,0,0,.23-.13c.02-.01.03-.01.04-.03Z" fill="#28a8ea"/><path d="M35,40.667V24.333A1.337,1.337,0,0,0,33.667,23H27.031v4h0v3.456l-1.681.958,0,0-.012.007h0A.666.666,0,0,0,25,32V42h8.667A1.337,1.337,0,0,0,35,40.667Z" opacity="0.1"/><path d="M34,41.667V25.333A1.337,1.337,0,0,0,32.667,24H27.031v3h0v3.456l-1.681.958,0,0-.012.007h0A.666.666,0,0,0,25,32V43h7.667A1.337,1.337,0,0,0,34,41.667Z" opacity="0.2"/><path d="M34,39.667V25.333A1.337,1.337,0,0,0,32.667,24H27.031v3h0v3.456l-1.681.958,0,0-.012.007h0A.666.666,0,0,0,25,32v9h7.667A1.337,1.337,0,0,0,34,39.667Z" opacity="0.2"/><path d="M33,39.667V25.333A1.337,1.337,0,0,0,31.667,24H27.031v3h0v3.456l-1.681.958,0,0-.012.007h0A.666.666,0,0,0,25,32v9h6.667A1.337,1.337,0,0,0,33,39.667Z" opacity="0.2"/><rect x="17" y="24" width="16" height="16" rx="1.333" fill="#0078d4"/><path d="M20.518,29.255A4.537,4.537,0,0,1,22.3,27.288a5.377,5.377,0,0,1,2.829-.709,5.007,5.007,0,0,1,2.617.672,4.492,4.492,0,0,1,1.733,1.879,6.067,6.067,0,0,1,.607,2.764,6.4,6.4,0,0,1-.625,2.892,4.6,4.6,0,0,1-1.784,1.944,5.2,5.2,0,0,1-2.716.691,5.128,5.128,0,0,1-2.676-.68,4.567,4.567,0,0,1-1.755-1.882,5.925,5.925,0,0,1-.614-2.731A6.565,6.565,0,0,1,20.518,29.255Zm1.9,4.617a2.954,2.954,0,0,0,1,1.294,2.618,2.618,0,0,0,1.565.471,2.747,2.747,0,0,0,1.67-.486,2.823,2.823,0,0,0,.973-1.3,5.017,5.017,0,0,0,.31-1.8,5.484,5.484,0,0,0-.292-1.828,2.892,2.892,0,0,0-.939-1.345,2.586,2.586,0,0,0-1.656-.512,2.7,2.7,0,0,0-1.6.475,2.971,2.971,0,0,0-1.024,1.3,5.176,5.176,0,0,0-.007,3.729Z" fill="#fff"/></svg>